<svg width="24" height="24" viewBox="0 0 24 24" fill="none" xmlns="http://www.w3.org/2000/svg">
<g clip-path="url(#clip0_209_171)">
<path fill-rule="evenodd" clip-rule="evenodd" d="M2.05556 1.75C1.89068 1.75 1.75 1.88552 1.75 2.06137V21.9387C1.75 22.1145 1.89068 22.25 2.05556 22.25H21.9445C22.1093 22.25 22.25 22.1145 22.25 21.9387V2.06137C22.25 1.88552 22.1093 1.75 21.9445 1.75H2.05556ZM0.25 2.06137C0.25 1.06486 1.0545 0.25 2.05556 0.25H21.9445C22.9455 0.25 23.75 1.06486 23.75 2.06137V21.9387C23.75 22.9351 22.9455 23.75 21.9445 23.75H2.05556C1.0545 23.75 0.25 22.9351 0.25 21.9387V2.06137Z" fill="#1F1D2B"/>
<path fill-rule="evenodd" clip-rule="evenodd" d="M19.3307 8.94348H17.1536H16.8964C16.2214 8.94348 15.6742 9.49068 15.6742 10.1657V12.6109H19.3307L18.7951 16.2763H15.6742V23H11.6532V16.2763H8.33325V12.6109H11.6103L11.6532 9.13168L11.6412 7.88468C11.6243 6.12383 13.038 4.68271 14.7988 4.6658C14.809 4.6657 14.8192 4.66565 14.8295 4.66565H19.3307V8.94348Z" fill="#1F1D2B"/>
</g>
<defs>
<clipPath id="clip0_209_171">
<rect width="24" height="24" fill="white"/>
</clipPath>
</defs>
</svg>
