<svg width="24" height="24" viewBox="0 0 24 24" fill="none" xmlns="http://www.w3.org/2000/svg">
<path d="M10.6793 9.56997C7.73492 9.42792 5.68832 10.4777 4.53943 12.7192C2.81609 16.0815 4.24038 21.5833 9.98967 21.5833C15.7389 21.5833 15.9053 16.0277 15.9053 15.4457C15.9053 15.0577 15.9053 12.8882 15.9053 8.93727C17.135 9.71617 18.1718 10.185 19.0156 10.3438C19.8595 10.5027 20.396 10.5731 20.6251 10.555V7.31712C19.8445 7.22302 19.1695 7.04367 18.6001 6.77907C17.7459 6.38212 16.0521 5.28057 16.0521 3.66604C16.0533 3.67394 16.0533 3.25747 16.0521 2.41663H12.4931C12.4825 10.3247 12.4825 14.6677 12.4931 15.4457C12.509 16.6127 11.6036 18.2452 9.76802 18.2452C7.93237 18.2452 7.02702 16.6141 7.02702 15.5619C7.02702 14.9178 7.24822 13.9842 8.16277 13.2929C8.70512 12.8829 9.45787 12.7192 10.6793 12.7192C10.6793 12.3414 10.6793 11.2917 10.6793 9.56997Z" stroke="#1F1D2B" stroke-width="1.5" stroke-linejoin="round"/>
</svg>
