<svg width="24" height="24" viewBox="0 0 24 24" fill="none" xmlns="http://www.w3.org/2000/svg">
<path fill-rule="evenodd" clip-rule="evenodd" d="M19.1684 4.6854C18.6903 4.0298 18.1161 3.52093 17.4384 3.18877C16.6737 2.81395 15.8239 2.68708 14.9148 2.7784C13.4475 2.92581 12.4225 3.74408 11.837 4.94524C11.337 5.97121 11.1626 7.2564 11.2223 8.63205C9.85772 9.16056 8.65369 8.87434 7.58657 8.19309C6.36575 7.41372 5.35057 6.12353 4.63648 4.95957C4.47924 4.70328 4.18413 4.56566 3.88673 4.60995C3.58932 4.65424 3.34712 4.87187 3.27138 5.16285C2.77165 7.0828 2.2363 9.56307 3.29726 12.3192C3.9049 13.8976 5.1823 15.2101 7.01759 16.2928C5.19349 17.1109 3.74784 17.3554 2.64051 17.1443C2.27847 17.0753 1.91995 17.2796 1.79473 17.6262C1.6695 17.9729 1.81468 18.3591 2.13722 18.5374C2.16001 18.55 2.18632 18.5647 2.21602 18.5812C2.81498 18.9146 4.79697 20.0177 7.25594 20.6952C9.81735 21.4008 13.0599 21.6897 15.8075 19.973C20.9025 16.7896 20.8683 11.3947 20.8521 8.82575C20.8516 8.75728 20.8512 8.69081 20.8509 8.62646C20.9217 8.50341 21.0096 8.3759 21.1229 8.21419C21.1283 8.20653 21.1337 8.1988 21.1392 8.19101C21.2856 7.98228 21.4662 7.72491 21.6321 7.4106C21.9907 6.7314 22.2501 5.85076 22.2501 4.47187C22.2501 4.17392 22.0737 3.90423 21.8008 3.78478C21.5278 3.66533 21.2101 3.71878 20.9912 3.92096C20.2884 4.5702 19.6966 4.76123 19.1684 4.6854ZM16.7782 4.53568C16.3003 4.30145 15.7378 4.20327 15.0648 4.27089C14.1591 4.36187 13.5634 4.8269 13.1854 5.60245C12.7863 6.4213 12.6295 7.60343 12.7514 9.03993C12.7772 9.34468 12.6154 9.63459 12.3425 9.77261C10.2323 10.8397 8.3172 10.4391 6.77943 9.45742C5.82985 8.85121 5.01665 8.02233 4.35374 7.17926C4.10232 8.60746 4.06579 10.1402 4.69713 11.7803C5.24638 13.2071 6.60622 14.5138 8.98256 15.6339C9.23833 15.7544 9.40456 16.0086 9.41251 16.2912C9.42045 16.5738 9.26877 16.8369 9.02018 16.9717C7.72571 17.6732 6.50955 18.1787 5.38135 18.4595C6.05564 18.7402 6.82658 19.021 7.65436 19.249C10.0658 19.9134 12.7959 20.0859 15.0126 18.7009C19.3783 15.9733 19.361 11.386 19.3513 8.78519C19.3508 8.66689 19.3504 8.55269 19.3504 8.44297C19.3504 8.33117 19.3754 8.22078 19.4236 8.11989C19.5654 7.82284 19.7427 7.56985 19.8901 7.35968L19.8955 7.35196C20.0506 7.13075 20.1843 6.94003 20.3057 6.71021C20.4102 6.51228 20.5119 6.27251 20.5917 5.9588C19.9255 6.23035 19.2247 6.28601 18.5029 6.07039C18.3335 6.01978 18.1874 5.91094 18.0905 5.7631C17.6985 5.16553 17.2576 4.77066 16.7782 4.53568Z" fill="#1F1D2B"/>
</svg>
