<svg width="24" height="24" viewBox="0 0 24 24" fill="none" xmlns="http://www.w3.org/2000/svg">
<path d="M5.53158 5.2072C8.30318 5.06905 10.4589 5 11.9988 5C13.5388 5 15.6953 5.0691 18.4683 5.20725C19.9693 5.28205 21.1834 6.45595 21.3086 7.9536C21.4354 9.4706 21.4988 10.8067 21.4988 11.9619C21.4988 13.1313 21.4338 14.486 21.3039 16.0261C21.1791 17.5052 19.9914 18.6706 18.5102 18.7675C16.1395 18.9225 13.969 19 11.9988 19C10.0288 19 7.85908 18.9225 5.48968 18.7675C4.00902 18.6707 2.82161 17.506 2.6962 16.0275C2.56458 14.4759 2.49878 13.1207 2.49878 11.9619C2.49878 10.817 2.56301 9.4805 2.69148 7.9522C2.81732 6.45515 4.03112 5.282 5.53158 5.2072Z" stroke="#1F1D2B" stroke-width="1.5" stroke-linejoin="round"/>
<path d="M10.5 9.80458V14.203C10.5 14.4397 10.6919 14.6316 10.9285 14.6316C11.0126 14.6316 11.0948 14.6069 11.1649 14.5605L14.4637 12.3803C14.6612 12.2498 14.7154 11.9839 14.5849 11.7864C14.5537 11.7392 14.5135 11.6986 14.4665 11.6671L11.1677 9.44893C10.9713 9.31688 10.705 9.36903 10.5729 9.56548C10.5254 9.63618 10.5 9.71943 10.5 9.80458Z" stroke="#1F1D2B" stroke-width="1.5" stroke-linejoin="round"/>
</svg>
