<svg width="64" height="64" viewBox="0 0 64 64" fill="none" xmlns="http://www.w3.org/2000/svg">
<path fill-rule="evenodd" clip-rule="evenodd" d="M6 38.6667C6 37.5622 6.89543 36.6667 8 36.6667H26.6667C27.7712 36.6667 28.6667 37.5622 28.6667 38.6667V57.3334C28.6667 58.438 27.7712 59.3334 26.6667 59.3334H8C6.89543 59.3334 6 58.438 6 57.3334V38.6667ZM10 40.6667V55.3334H24.6667V40.6667H10Z" fill="url(#paint0_linear_41_198)"/>
<path fill-rule="evenodd" clip-rule="evenodd" d="M32 3.33325C32.7087 3.33325 33.3645 3.70833 33.7239 4.31921L47.0572 26.9859C47.421 27.6043 47.4256 28.3701 47.0694 28.9929C46.7132 29.6156 46.0508 29.9999 45.3333 29.9999H18.6667C17.9492 29.9999 17.2868 29.6156 16.9306 28.9929C16.5744 28.3701 16.579 27.6043 16.9428 26.9859L30.2761 4.31921C30.6355 3.70833 31.2913 3.33325 32 3.33325ZM22.1635 25.9999H41.8365L32 9.27787L22.1635 25.9999Z" fill="url(#paint1_linear_41_198)"/>
<path fill-rule="evenodd" clip-rule="evenodd" d="M48 39.3333C43.2135 39.3333 39.3333 43.2135 39.3333 47.9999C39.3333 52.7864 43.2135 56.6666 48 56.6666C52.7865 56.6666 56.6667 52.7864 56.6667 47.9999C56.6667 43.2135 52.7865 39.3333 48 39.3333ZM35.3333 47.9999C35.3333 41.0043 41.0044 35.3333 48 35.3333C54.9956 35.3333 60.6667 41.0043 60.6667 47.9999C60.6667 54.9955 54.9956 60.6666 48 60.6666C41.0044 60.6666 35.3333 54.9955 35.3333 47.9999Z" fill="url(#paint2_linear_41_198)"/>
<defs>
<linearGradient id="paint0_linear_41_198" x1="6" y1="36.6667" x2="28.943" y2="36.95" gradientUnits="userSpaceOnUse">
<stop stop-color="#73E0A9"/>
<stop offset="1" stop-color="#5B68DF"/>
</linearGradient>
<linearGradient id="paint1_linear_41_198" x1="16.6667" y1="3.33325" x2="47.7057" y2="3.77393" gradientUnits="userSpaceOnUse">
<stop stop-color="#73E0A9"/>
<stop offset="1" stop-color="#5B68DF"/>
</linearGradient>
<linearGradient id="paint2_linear_41_198" x1="35.3333" y1="35.3333" x2="60.9755" y2="35.6498" gradientUnits="userSpaceOnUse">
<stop stop-color="#73E0A9"/>
<stop offset="1" stop-color="#5B68DF"/>
</linearGradient>
</defs>
</svg>
