<svg width="73" height="100" viewBox="0 0 73 100" fill="none" xmlns="http://www.w3.org/2000/svg">
<path d="M41.28 82V69.328H31.2C28.608 69.328 27.456 68.08 27.456 65.584V45.52H38.976V33.808H27.456V19.024H10.848V33.808H1.152V45.52H10.848V68.176C10.848 76.72 15.648 82 24.384 82H41.28Z" fill="url(#paint0_linear_145_181)"/>
<path d="M31.72 18L31.72 30.672L41.8 30.672C44.392 30.672 45.544 31.92 45.544 34.416L45.544 54.48L34.024 54.48L34.024 66.192L45.544 66.192L45.544 80.976L62.152 80.976L62.152 66.192L71.848 66.192L71.848 54.48L62.152 54.48L62.152 31.824C62.152 23.28 57.352 18 48.616 18L31.72 18Z" fill="url(#paint1_linear_145_181)"/>
<defs>
<linearGradient id="paint0_linear_145_181" x1="0" y1="0" x2="44.5419" y2="0.241956" gradientUnits="userSpaceOnUse">
<stop stop-color="#73E0A9"/>
<stop offset="1" stop-color="#5B68DF"/>
</linearGradient>
<linearGradient id="paint1_linear_145_181" x1="73" y1="100" x2="28.4581" y2="99.758" gradientUnits="userSpaceOnUse">
<stop stop-color="#73E0A9"/>
<stop offset="1" stop-color="#5B68DF"/>
</linearGradient>
</defs>
</svg>
