<svg width="64" height="64" viewBox="0 0 64 64" fill="none" xmlns="http://www.w3.org/2000/svg">
<path fill-rule="evenodd" clip-rule="evenodd" d="M3.33337 32C3.33337 16.1679 16.1679 3.33337 32 3.33337C47.8322 3.33337 60.6667 16.1679 60.6667 32C60.6667 47.8322 47.8322 60.6667 32 60.6667C16.1679 60.6667 3.33337 47.8322 3.33337 32ZM32 7.33337C18.377 7.33337 7.33337 18.377 7.33337 32C7.33337 45.6231 18.377 56.6667 32 56.6667C45.6231 56.6667 56.6667 45.6231 56.6667 32C56.6667 18.377 45.6231 7.33337 32 7.33337Z" fill="url(#paint0_linear_50_897)"/>
<path fill-rule="evenodd" clip-rule="evenodd" d="M25.6666 21.0304C26.2854 20.6731 27.0478 20.6731 27.6666 21.0304L43.6666 30.268C44.2854 30.6253 44.6666 31.2855 44.6666 32.0001C44.6666 32.7146 44.2854 33.3748 43.6666 33.7321L27.6666 42.9697C27.0478 43.327 26.2854 43.327 25.6666 42.9697C25.0478 42.6124 24.6666 41.9522 24.6666 41.2376V22.7625C24.6666 22.0479 25.0478 21.3877 25.6666 21.0304ZM28.6666 26.2266V37.7736L38.6666 32.0001L28.6666 26.2266Z" fill="url(#paint1_linear_50_897)"/>
<defs>
<linearGradient id="paint0_linear_50_897" x1="3.33337" y1="3.33337" x2="61.3657" y2="4.04982" gradientUnits="userSpaceOnUse">
<stop stop-color="#73E0A9"/>
<stop offset="1" stop-color="#5B68DF"/>
</linearGradient>
<linearGradient id="paint1_linear_50_897" x1="24.6666" y1="20.7625" x2="44.9111" y2="20.9849" gradientUnits="userSpaceOnUse">
<stop stop-color="#73E0A9"/>
<stop offset="1" stop-color="#5B68DF"/>
</linearGradient>
</defs>
</svg>
