<svg width="64" height="64" viewBox="0 0 64 64" fill="none" xmlns="http://www.w3.org/2000/svg">
<path fill-rule="evenodd" clip-rule="evenodd" d="M5.14386 21.3702C5.52386 20.9239 6.08051 20.6667 6.66667 20.6667H57.3333C57.9195 20.6667 58.4761 20.9239 58.8561 21.3702C59.2361 21.8165 59.4012 22.407 59.3077 22.9857L53.7077 57.6524C53.5512 58.6213 52.7148 59.3334 51.7333 59.3334H12.2667C11.2852 59.3334 10.4488 58.6213 10.2923 57.6524L4.69227 22.9857C4.59879 22.407 4.76387 21.8165 5.14386 21.3702ZM9.01567 24.6667L13.9695 55.3334H50.0305L54.9843 24.6667H9.01567Z" fill="url(#paint0_linear_41_210)"/>
<path fill-rule="evenodd" clip-rule="evenodd" d="M15.3333 22.6667C15.3333 12.893 22.6351 4.66675 32 4.66675C41.365 4.66675 48.6667 12.893 48.6667 22.6667C48.6667 23.7713 47.7712 24.6667 46.6667 24.6667C45.5621 24.6667 44.6667 23.7713 44.6667 22.6667C44.6667 14.7674 38.8353 8.66675 32 8.66675C25.1647 8.66675 19.3333 14.7674 19.3333 22.6667C19.3333 23.7713 18.4379 24.6667 17.3333 24.6667C16.2288 24.6667 15.3333 23.7713 15.3333 22.6667Z" fill="url(#paint1_linear_41_210)"/>
<path d="M22.6667 37.3333C24.1394 37.3333 25.3333 36.1394 25.3333 34.6667C25.3333 33.1939 24.1394 32 22.6667 32C21.1939 32 20 33.1939 20 34.6667C20 36.1394 21.1939 37.3333 22.6667 37.3333Z" fill="url(#paint2_linear_41_210)"/>
<path fill-rule="evenodd" clip-rule="evenodd" d="M25.6563 42.879C25.041 41.9694 23.8058 41.7257 22.8906 42.3359C21.9715 42.9486 21.7232 44.1903 22.3359 45.1094L24 44C22.3359 45.1094 22.3364 45.1101 22.3369 45.1109L22.338 45.1126L22.3404 45.1161L22.346 45.1244L22.3602 45.1453L22.4013 45.2039C22.4343 45.2503 22.4786 45.311 22.5341 45.3839C22.6451 45.5296 22.802 45.7252 23.0052 45.9537C23.4101 46.4092 24.0072 47.0053 24.8 47.6C26.3917 48.7937 28.8023 50 32 50C35.1977 50 37.6083 48.7937 39.2 47.6C39.9928 47.0053 40.5899 46.4092 40.9948 45.9537C41.198 45.7252 41.3549 45.5296 41.4659 45.3839C41.5214 45.311 41.5657 45.2503 41.5987 45.2039L41.6398 45.1453L41.654 45.1244L41.6596 45.1161L41.662 45.1126L41.6631 45.1109C41.6636 45.1101 41.6641 45.1094 40 44L41.6641 45.1094C42.2768 44.1903 42.0285 42.9486 41.1094 42.3359C40.1942 41.7257 38.9591 41.9694 38.3437 42.879C38.3443 42.878 38.3447 42.8775 38.3447 42.8775L38.3446 42.8776L38.3421 42.8814L38.3394 42.8853L38.3388 42.8858C38.3411 42.8827 38.3427 42.8804 38.3437 42.879C38.3414 42.8824 38.3391 42.8857 38.3369 42.8891L38.3378 42.8877L38.3388 42.8858C38.3302 42.8981 38.3119 42.9233 38.2841 42.9598C38.2285 43.0328 38.1354 43.1498 38.0052 43.2962C37.7434 43.5907 37.3405 43.9946 36.8 44.4C35.725 45.2062 34.1357 46 32 46C29.8643 46 28.275 45.2062 27.2 44.4C26.6595 43.9946 26.2566 43.5907 25.9948 43.2962C25.8646 43.1498 25.7715 43.0328 25.7159 42.9598C25.6881 42.9233 25.6698 42.8981 25.6612 42.8858C25.6589 42.8827 25.6573 42.8804 25.6564 42.879" fill="url(#paint3_linear_41_210)"/>
<path d="M41.3333 37.3333C42.8061 37.3333 44 36.1394 44 34.6667C44 33.1939 42.8061 32 41.3333 32C39.8606 32 38.6667 33.1939 38.6667 34.6667C38.6667 36.1394 39.8606 37.3333 41.3333 37.3333Z" fill="url(#paint4_linear_41_210)"/>
<defs>
<linearGradient id="paint0_linear_41_210" x1="4.66666" y1="20.6667" x2="59.9914" y2="21.6324" gradientUnits="userSpaceOnUse">
<stop stop-color="#73E0A9"/>
<stop offset="1" stop-color="#5B68DF"/>
</linearGradient>
<linearGradient id="paint1_linear_41_210" x1="15.3333" y1="4.66675" x2="49.0639" y2="5.36079" gradientUnits="userSpaceOnUse">
<stop stop-color="#73E0A9"/>
<stop offset="1" stop-color="#5B68DF"/>
</linearGradient>
<linearGradient id="paint2_linear_41_210" x1="20" y1="32" x2="25.3984" y2="32.0666" gradientUnits="userSpaceOnUse">
<stop stop-color="#73E0A9"/>
<stop offset="1" stop-color="#5B68DF"/>
</linearGradient>
<linearGradient id="paint3_linear_41_210" x1="21.9998" y1="41.9998" x2="42.2279" y2="42.6241" gradientUnits="userSpaceOnUse">
<stop stop-color="#73E0A9"/>
<stop offset="1" stop-color="#5B68DF"/>
</linearGradient>
<linearGradient id="paint4_linear_41_210" x1="38.6667" y1="32" x2="44.065" y2="32.0666" gradientUnits="userSpaceOnUse">
<stop stop-color="#73E0A9"/>
<stop offset="1" stop-color="#5B68DF"/>
</linearGradient>
</defs>
</svg>
